<svg width="134" height="47" viewBox="0 0 134 47" fill="none" xmlns="http://www.w3.org/2000/svg">
<path d="M7.30067 29.864H14.3193V34H1.94267V12.004H7.30067V29.864ZM19.5696 14.6987C18.6296 14.6987 17.8567 14.4271 17.251 13.884C16.6661 13.32 16.3736 12.6307 16.3736 11.816C16.3736 10.9804 16.6661 10.2911 17.251 9.748C17.8567 9.184 18.6296 8.902 19.5696 8.902C20.4887 8.902 21.2407 9.184 21.8256 9.748C22.4314 10.2911 22.7343 10.9804 22.7343 11.816C22.7343 12.6307 22.4314 13.32 21.8256 13.884C21.2407 14.4271 20.4887 14.6987 19.5696 14.6987ZM22.233 16.516V34H16.875V16.516H22.233ZM31.4738 18.9913C31.9752 18.1767 32.6958 17.5187 33.6358 17.0173C34.5758 16.516 35.6516 16.2653 36.8632 16.2653C38.3045 16.2653 39.6101 16.6309 40.7798 17.362C41.9496 18.0931 42.8687 19.1376 43.5372 20.4953C44.2265 21.8531 44.5712 23.4302 44.5712 25.2267C44.5712 27.0231 44.2265 28.6107 43.5372 29.9893C42.8687 31.3471 41.9496 32.402 40.7798 33.154C39.6101 33.8851 38.3045 34.2507 36.8632 34.2507C35.6307 34.2507 34.555 34.0104 33.6358 33.53C32.7167 33.0287 31.9961 32.3707 31.4738 31.556V34H26.1158V10.8133H31.4738V18.9913ZM39.1192 25.2267C39.1192 23.8898 38.7432 22.8453 37.9912 22.0933C37.2601 21.3204 36.3514 20.934 35.2652 20.934C34.1998 20.934 33.2912 21.3204 32.5392 22.0933C31.8081 22.8662 31.4425 23.9211 31.4425 25.258C31.4425 26.5949 31.8081 27.6498 32.5392 28.4227C33.2912 29.1956 34.1998 29.582 35.2652 29.582C36.3305 29.582 37.2392 29.1956 37.9912 28.4227C38.7432 27.6289 39.1192 26.5636 39.1192 25.2267ZM63.8635 24.976C63.8635 25.4773 63.8321 25.9996 63.7695 26.5427H51.6435C51.727 27.6289 52.0717 28.4644 52.6775 29.0493C53.3041 29.6133 54.0666 29.8953 54.9648 29.8953C56.3017 29.8953 57.2312 29.3313 57.7535 28.2033H63.4561C63.1637 29.3522 62.631 30.3862 61.8581 31.3053C61.1061 32.2244 60.1557 32.9451 59.0068 33.4673C57.8579 33.9896 56.5732 34.2507 55.1528 34.2507C53.4399 34.2507 51.915 33.8851 50.5781 33.154C49.2412 32.4229 48.1968 31.3784 47.4448 30.0207C46.6928 28.6629 46.3168 27.0753 46.3168 25.258C46.3168 23.4407 46.6823 21.8531 47.4135 20.4953C48.1655 19.1376 49.2099 18.0931 50.5468 17.362C51.8837 16.6309 53.419 16.2653 55.1528 16.2653C56.8448 16.2653 58.3488 16.6204 59.6648 17.3307C60.9808 18.0409 62.0043 19.054 62.7355 20.37C63.4875 21.686 63.8635 23.2213 63.8635 24.976ZM58.3801 23.566C58.3801 22.6469 58.0668 21.9158 57.4401 21.3727C56.8135 20.8296 56.0301 20.558 55.0901 20.558C54.1919 20.558 53.4295 20.8191 52.8028 21.3413C52.197 21.8636 51.821 22.6051 51.6748 23.566H58.3801ZM72.0481 19.43C72.6747 18.4691 73.4581 17.7171 74.3981 17.174C75.3381 16.61 76.3825 16.328 77.5314 16.328V21.9993H76.0587C74.7218 21.9993 73.7192 22.2918 73.0507 22.8767C72.3823 23.4407 72.0481 24.4433 72.0481 25.8847V34H66.6901V16.516H72.0481V19.43ZM89.8371 29.4567V34H87.1111C85.1684 34 83.654 33.53 82.5677 32.59C81.4815 31.6291 80.9384 30.0729 80.9384 27.9213V20.9653H78.8077V16.516H80.9384V12.2547H86.2964V16.516H89.8057V20.9653H86.2964V27.984C86.2964 28.5062 86.4217 28.8822 86.6724 29.112C86.9231 29.3418 87.3409 29.4567 87.9257 29.4567H89.8371ZM91.7562 25.2267C91.7562 23.4302 92.0905 21.8531 92.7589 20.4953C93.4482 19.1376 94.3778 18.0931 95.5476 17.362C96.7174 16.6309 98.0229 16.2653 99.4642 16.2653C100.697 16.2653 101.772 16.516 102.692 17.0173C103.632 17.5187 104.352 18.1767 104.854 18.9913V16.516H110.212V34H104.854V31.5247C104.331 32.3393 103.6 32.9973 102.66 33.4987C101.741 34 100.665 34.2507 99.4329 34.2507C98.0125 34.2507 96.7174 33.8851 95.5476 33.154C94.3778 32.402 93.4482 31.3471 92.7589 29.9893C92.0905 28.6107 91.7562 27.0231 91.7562 25.2267ZM104.854 25.258C104.854 23.9211 104.478 22.8662 103.726 22.0933C102.994 21.3204 102.096 20.934 101.031 20.934C99.9656 20.934 99.0569 21.3204 98.3049 22.0933C97.5738 22.8453 97.2082 23.8898 97.2082 25.2267C97.2082 26.5636 97.5738 27.6289 98.3049 28.4227C99.0569 29.1956 99.9656 29.582 101.031 29.582C102.096 29.582 102.994 29.1956 103.726 28.4227C104.478 27.6498 104.854 26.5949 104.854 25.258ZM113.023 25.2267C113.023 23.4302 113.357 21.8531 114.025 20.4953C114.715 19.1376 115.644 18.0931 116.814 17.362C117.984 16.6309 119.289 16.2653 120.731 16.2653C121.879 16.2653 122.924 16.5056 123.864 16.986C124.825 17.4664 125.577 18.114 126.12 18.9287V10.8133H131.478V34H126.12V31.4933C125.619 32.3289 124.898 32.9973 123.958 33.4987C123.039 34 121.963 34.2507 120.731 34.2507C119.289 34.2507 117.984 33.8851 116.814 33.154C115.644 32.402 114.715 31.3471 114.025 29.9893C113.357 28.6107 113.023 27.0231 113.023 25.2267ZM126.12 25.258C126.12 23.9211 125.744 22.8662 124.992 22.0933C124.261 21.3204 123.363 20.934 122.297 20.934C121.232 20.934 120.323 21.3204 119.571 22.0933C118.84 22.8453 118.475 23.8898 118.475 25.2267C118.475 26.5636 118.84 27.6289 119.571 28.4227C120.323 29.1956 121.232 29.582 122.297 29.582C123.363 29.582 124.261 29.1956 124.992 28.4227C125.744 27.6498 126.12 26.5949 126.12 25.258Z" fill="black"/>
<circle cx="19.5" cy="11.5" r="3.5" fill="#00FF19"/>
</svg>
