<svg width="21" height="23" viewBox="0 0 21 23" fill="none" xmlns="http://www.w3.org/2000/svg">
<path d="M7.41834 0.363113C7.59212 0.546765 7.70676 0.783784 7.74594 1.04043C7.78511 1.29707 7.74683 1.56026 7.63653 1.79253C6.81522 3.52163 6.52961 5.48087 6.8203 7.3917C7.11099 9.30253 7.96319 11.0677 9.25574 12.4363C10.5483 13.8049 12.2154 14.7072 14.0201 15.015C15.8248 15.3228 17.6751 15.0204 19.3082 14.1508C19.5274 14.0338 19.7759 13.993 20.0183 14.0343C20.2607 14.0755 20.4846 14.1967 20.6582 14.3805C20.8318 14.5643 20.9463 14.8014 20.9852 15.058C21.0242 15.3147 20.9857 15.5778 20.8752 15.81C20.0907 17.4599 18.9477 18.8892 17.54 19.9804C16.1324 21.0717 14.5002 21.7936 12.7778 22.087C11.0553 22.3804 9.29168 22.2369 7.6318 21.6682C5.97193 21.0995 4.46319 20.1219 3.22956 18.8157C1.99593 17.5095 1.07264 15.912 0.535539 14.1545C-0.00155821 12.397 -0.137125 10.5296 0.139979 8.70584C0.417082 6.88206 1.09895 5.15393 2.12954 3.66345C3.16013 2.17297 4.51004 0.962701 6.06833 0.132083C6.28783 0.0150107 6.53664 -0.0256845 6.77927 0.0158017C7.0219 0.0572879 7.24596 0.178837 7.4195 0.363113H7.41834ZM4.45813 4.53523C3.02215 6.29448 2.26826 8.564 2.34794 10.8877C2.42763 13.2114 3.33499 15.417 4.88769 17.0614C6.44038 18.7057 8.52332 19.6669 10.7179 19.7517C12.9125 19.8365 15.0561 19.0387 16.7179 17.5186C15.0597 17.7294 13.378 17.5386 11.7997 16.9606C10.2214 16.3827 8.78765 15.4327 7.60675 14.1823C6.42584 12.9319 5.52861 11.4139 4.98277 9.7427C4.43693 8.07153 4.25674 6.29091 4.45579 4.53523H4.45813Z" fill="#0D0D0D"/>
</svg>
