<svg width="25" height="25" viewBox="0 0 25 25" fill="none" xmlns="http://www.w3.org/2000/svg">
<path d="M12.2794 0C12.6051 0 12.9174 0.129372 13.1477 0.359655C13.378 0.589939 13.5073 0.90227 13.5073 1.22794V2.45588C13.5073 2.78155 13.378 3.09388 13.1477 3.32416C12.9174 3.55445 12.6051 3.68382 12.2794 3.68382C11.9537 3.68382 11.6414 3.55445 11.4111 3.32416C11.1808 3.09388 11.0515 2.78155 11.0515 2.45588V1.22794C11.0515 0.90227 11.1808 0.589939 11.4111 0.359655C11.6414 0.129372 11.9537 0 12.2794 0V0ZM20.9622 3.59664C21.1924 3.82691 21.3217 4.13918 21.3217 4.46479C21.3217 4.7904 21.1924 5.10267 20.9622 5.33294L20.094 6.2011C19.9807 6.31838 19.8452 6.41192 19.6954 6.47628C19.5456 6.54063 19.3845 6.57451 19.2214 6.57593C19.0584 6.57734 18.8967 6.54627 18.7458 6.48453C18.5949 6.42279 18.4578 6.33161 18.3425 6.21632C18.2272 6.10102 18.136 5.96392 18.0743 5.81301C18.0125 5.6621 17.9815 5.50041 17.9829 5.33736C17.9843 5.17432 18.0182 5.01319 18.0825 4.86337C18.1469 4.71356 18.2404 4.57806 18.3577 4.46479L19.2259 3.59664C19.4561 3.36643 19.7684 3.23711 20.094 3.23711C20.4196 3.23711 20.7319 3.36643 20.9622 3.59664V3.59664ZM3.59664 3.59664C3.82691 3.36643 4.13918 3.23711 4.46479 3.23711C4.7904 3.23711 5.10267 3.36643 5.33294 3.59664L6.2011 4.46479C6.42478 4.69638 6.54855 5.00656 6.54575 5.32852C6.54295 5.65049 6.41381 5.95847 6.18614 6.18614C5.95847 6.41381 5.65049 6.54295 5.32852 6.54575C5.00656 6.54855 4.69638 6.42478 4.46479 6.2011L3.59664 5.33294C3.36643 5.10267 3.23711 4.7904 3.23711 4.46479C3.23711 4.13918 3.36643 3.82691 3.59664 3.59664V3.59664ZM12.2794 7.36764C10.9767 7.36764 9.72739 7.88513 8.80626 8.80626C7.88513 9.72739 7.36764 10.9767 7.36764 12.2794C7.36764 13.5821 7.88513 14.8314 8.80626 15.7525C9.72739 16.6737 10.9767 17.1912 12.2794 17.1912C13.5821 17.1912 14.8314 16.6737 15.7525 15.7525C16.6737 14.8314 17.1912 13.5821 17.1912 12.2794C17.1912 10.9767 16.6737 9.72739 15.7525 8.80626C14.8314 7.88513 13.5821 7.36764 12.2794 7.36764V7.36764ZM4.91176 12.2794C4.91176 10.3254 5.68799 8.45139 7.06969 7.06969C8.45139 5.68799 10.3254 4.91176 12.2794 4.91176C14.2334 4.91176 16.1074 5.68799 17.4891 7.06969C18.8708 8.45139 19.647 10.3254 19.647 12.2794C19.647 14.2334 18.8708 16.1074 17.4891 17.4891C16.1074 18.8708 14.2334 19.647 12.2794 19.647C10.3254 19.647 8.45139 18.8708 7.06969 17.4891C5.68799 16.1074 4.91176 14.2334 4.91176 12.2794V12.2794ZM0 12.2794C0 11.9537 0.129372 11.6414 0.359655 11.4111C0.589939 11.1808 0.90227 11.0515 1.22794 11.0515H2.45588C2.78155 11.0515 3.09388 11.1808 3.32416 11.4111C3.55445 11.6414 3.68382 11.9537 3.68382 12.2794C3.68382 12.6051 3.55445 12.9174 3.32416 13.1477C3.09388 13.378 2.78155 13.5073 2.45588 13.5073H1.22794C0.90227 13.5073 0.589939 13.378 0.359655 13.1477C0.129372 12.9174 0 12.6051 0 12.2794V12.2794ZM20.875 12.2794C20.875 11.9537 21.0044 11.6414 21.2346 11.4111C21.4649 11.1808 21.7772 11.0515 22.1029 11.0515H23.3309C23.6565 11.0515 23.9689 11.1808 24.1991 11.4111C24.4294 11.6414 24.5588 11.9537 24.5588 12.2794C24.5588 12.6051 24.4294 12.9174 24.1991 13.1477C23.9689 13.378 23.6565 13.5073 23.3309 13.5073H22.1029C21.7772 13.5073 21.4649 13.378 21.2346 13.1477C21.0044 12.9174 20.875 12.6051 20.875 12.2794ZM4.46479 18.3577C4.69638 18.134 5.00656 18.0103 5.32852 18.0131C5.65049 18.0159 5.95847 18.145 6.18614 18.3727C6.41381 18.6003 6.54295 18.9083 6.54575 19.2303C6.54855 19.5522 6.42478 19.8624 6.2011 20.094L5.33294 20.9622C5.10135 21.1858 4.79117 21.3096 4.46921 21.3068C4.14725 21.304 3.83926 21.1749 3.61159 20.9472C3.38392 20.7195 3.25478 20.4116 3.25199 20.0896C3.24919 19.7676 3.37296 19.4574 3.59664 19.2259L4.46479 18.3577ZM18.3577 20.094C18.134 19.8624 18.0103 19.5522 18.0131 19.2303C18.0159 18.9083 18.145 18.6003 18.3727 18.3727C18.6003 18.145 18.9083 18.0159 19.2303 18.0131C19.5522 18.0103 19.8624 18.134 20.094 18.3577L20.9622 19.2259C21.1858 19.4574 21.3096 19.7676 21.3068 20.0896C21.304 20.4116 21.1749 20.7195 20.9472 20.9472C20.7195 21.1749 20.4116 21.304 20.0896 21.3068C19.7676 21.3096 19.4574 21.1858 19.2259 20.9622L18.3577 20.094ZM12.2794 20.875C12.6051 20.875 12.9174 21.0044 13.1477 21.2346C13.378 21.4649 13.5073 21.7772 13.5073 22.1029V23.3309C13.5073 23.6565 13.378 23.9689 13.1477 24.1991C12.9174 24.4294 12.6051 24.5588 12.2794 24.5588C11.9537 24.5588 11.6414 24.4294 11.4111 24.1991C11.1808 23.9689 11.0515 23.6565 11.0515 23.3309V22.1029C11.0515 21.7772 11.1808 21.4649 11.4111 21.2346C11.6414 21.0044 11.9537 20.875 12.2794 20.875V20.875Z" fill="white"/>
</svg>
